HIERARCHY
ROOT mixamorig:Hips
{
	OFFSET 0.000000 201.639420 0.000000
	CHANNELS 6 Xposition Yposition Zposition Xrotation Yrotation Zrotation
	JOINT mixamorig:Spine
	{
		OFFSET 0.006200 19.524994 -2.481800
		CHANNELS 3 Xrotation Yrotation Zrotation
		JOINT mixamorig:Spine1
		{
			OFFSET -0.000900 22.835007 -2.825400
			CHANNELS 3 Xrotation Yrotation Zrotation
			JOINT mixamorig:Spine2
			{
				OFFSET -0.020600 26.552490 -3.193300
				CHANNELS 3 Xrotation Yrotation Zrotation
				JOINT mixamorig:Neck
				{
					OFFSET -0.060000 30.701813 1.352200
					CHANNELS 3 Xrotation Yrotation Zrotation
					JOINT mixamorig:Head
					{
						OFFSET -0.087200 22.547607 3.670900
						CHANNELS 3 Xrotation Yrotation Zrotation
						JOINT mixamorig:HeadTop_End
						{
							OFFSET -0.830600 40.355194 7.893500
							CHANNELS 3 Xrotation Yrotation Zrotation
							End Site
							{
								OFFSET 0.000000 30.592346 0.000000
							}
						}
						JOINT mixamorig:RightEye
						{
							OFFSET -6.302100 18.118591 16.197100
							CHANNELS 3 Xrotation Yrotation Zrotation
							End Site
							{
								OFFSET 0.000000 30.592346 0.000000
							}
						}
						JOINT mixamorig:LeftEye
						{
							OFFSET 6.741500 18.382690 16.401899
							CHANNELS 3 Xrotation Yrotation Zrotation
							End Site
							{
								OFFSET 0.000000 30.592346 0.000000
							}
						}
					}
				}
				JOINT mixamorig:LeftShoulder
				{
					OFFSET 11.924900 18.230499 1.425400
					CHANNELS 3 Xrotation Yrotation Zrotation
					JOINT mixamorig:LeftArm
					{
						OFFSET 25.435989 -0.697632 -5.229300
						CHANNELS 3 Xrotation Yrotation Zrotation
						JOINT mixamorig:LeftForeArm
						{
							OFFSET 54.684776 0.000000 0.000000
							CHANNELS 3 Xrotation Yrotation Zrotation
							JOINT mixamorig:LeftHand
							{
								OFFSET 55.098175 0.000000 0.000000
								CHANNELS 3 Xrotation Yrotation Zrotation
								JOINT mixamorig:LeftHandMiddle1
								{
									OFFSET 23.369751 0.000000 0.000000
									CHANNELS 3 Xrotation Yrotation Zrotation
									JOINT mixamorig:LeftHandMiddle2
									{
										OFFSET 6.378677 0.000000 0.000000
										CHANNELS 3 Xrotation Yrotation Zrotation
										JOINT mixamorig:LeftHandMiddle3
										{
											OFFSET 6.148331 0.000000 0.000000
											CHANNELS 3 Xrotation Yrotation Zrotation
											JOINT mixamorig:LeftHandMiddle4
											{
												OFFSET 6.582504 0.000000 0.000000
												CHANNELS 3 Xrotation Yrotation Zrotation
												End Site
												{
													OFFSET -1.168900 6.395691 1.028606
												}
											}
										}
									}
								}
								JOINT mixamorig:LeftHandThumb1
								{
									OFFSET 7.235672 -3.848206 5.434273
									CHANNELS 3 Xrotation Yrotation Zrotation
									JOINT mixamorig:LeftHandThumb2
									{
										OFFSET 6.568451 -3.792297 3.792300
										CHANNELS 3 Xrotation Yrotation Zrotation
										JOINT mixamorig:LeftHandThumb3
										{
											OFFSET 6.063080 -3.500519 3.500518
											CHANNELS 3 Xrotation Yrotation Zrotation
											JOINT mixamorig:LeftHandThumb4
											{
												OFFSET 4.793182 -2.767334 2.767349
												CHANNELS 3 Xrotation Yrotation Zrotation
												End Site
												{
													OFFSET 0.101639 6.054260 1.275483
												}
											}
										}
									}
								}
								JOINT mixamorig:LeftHandIndex1
								{
									OFFSET 23.101074 -0.309540 4.992809
									CHANNELS 3 Xrotation Yrotation Zrotation
									JOINT mixamorig:LeftHandIndex2
									{
										OFFSET 6.226883 0.000000 0.000000
										CHANNELS 3 Xrotation Yrotation Zrotation
										JOINT mixamorig:LeftHandIndex3
										{
											OFFSET 6.094330 0.000000 0.000000
											CHANNELS 3 Xrotation Yrotation Zrotation
											JOINT mixamorig:LeftHandIndex4
											{
												OFFSET 5.482605 0.000000 0.000000
												CHANNELS 3 Xrotation Yrotation Zrotation
												End Site
												{
													OFFSET -1.427902 5.233032 0.797164
												}
											}
										}
									}
								}
								JOINT mixamorig:LeftHandRing1
								{
									OFFSET 22.299240 0.021149 -3.964172
									CHANNELS 3 Xrotation Yrotation Zrotation
									JOINT mixamorig:LeftHandRing2
									{
										OFFSET 6.321869 0.000000 0.000000
										CHANNELS 3 Xrotation Yrotation Zrotation
										JOINT mixamorig:LeftHandRing3
										{
											OFFSET 5.899796 0.000000 0.000000
											CHANNELS 3 Xrotation Yrotation Zrotation
											JOINT mixamorig:LeftHandRing4
											{
												OFFSET 6.517899 0.000000 0.000000
												CHANNELS 3 Xrotation Yrotation Zrotation
												End Site
												{
													OFFSET -1.637299 6.232208 0.980890
												}
											}
										}
									}
								}
								JOINT mixamorig:LeftHandPinky1
								{
									OFFSET 20.463791 -0.302338 -8.562233
									CHANNELS 3 Xrotation Yrotation Zrotation
									JOINT mixamorig:LeftHandPinky2
									{
										OFFSET 6.908646 0.000000 0.000000
										CHANNELS 3 Xrotation Yrotation Zrotation
										JOINT mixamorig:LeftHandPinky3
										{
											OFFSET 4.622849 0.000000 0.000000
											CHANNELS 3 Xrotation Yrotation Zrotation
											JOINT mixamorig:LeftHandPinky4
											{
												OFFSET 5.216080 0.000000 0.000000
												CHANNELS 3 Xrotation Yrotation Zrotation
												End Site
												{
													OFFSET -0.606308 5.116241 0.814926
												}
											}
										}
									}
								}
							}
						}
					}
				}
				JOINT mixamorig:RightShoulder
				{
					OFFSET -12.001300 18.284088 1.348900
					CHANNELS 3 Xrotation Yrotation Zrotation
					JOINT mixamorig:RightArm
					{
						OFFSET -25.308500 -0.751312 -5.164599
						CHANNELS 3 Xrotation Yrotation Zrotation
						JOINT mixamorig:RightForeArm
						{
							OFFSET -54.684429 0.000000 0.000000
							CHANNELS 3 Xrotation Yrotation Zrotation
							JOINT mixamorig:RightHand
							{
								OFFSET -55.150291 0.000000 0.000000
								CHANNELS 3 Xrotation Yrotation Zrotation
								JOINT mixamorig:RightHandMiddle1
								{
									OFFSET -23.317566 0.000000 0.000000
									CHANNELS 3 Xrotation Yrotation Zrotation
									JOINT mixamorig:RightHandMiddle2
									{
										OFFSET -6.378403 0.000000 0.000000
										CHANNELS 3 Xrotation Yrotation Zrotation
										JOINT mixamorig:RightHandMiddle3
										{
											OFFSET -6.148193 0.000000 0.000000
											CHANNELS 3 Xrotation Yrotation Zrotation
											JOINT mixamorig:RightHandMiddle4
											{
												OFFSET -6.583389 0.000000 0.000000
												CHANNELS 3 Xrotation Yrotation Zrotation
												End Site
												{
													OFFSET 1.171692 6.395905 1.029786
												}
											}
										}
									}
								}
								JOINT mixamorig:RightHandThumb1
								{
									OFFSET -7.190521 -3.860474 5.435846
									CHANNELS 3 Xrotation Yrotation Zrotation
									JOINT mixamorig:RightHandThumb2
									{
										OFFSET -6.567429 -3.791718 3.791708
										CHANNELS 3 Xrotation Yrotation Zrotation
										JOINT mixamorig:RightHandThumb3
										{
											OFFSET -6.062469 -3.500153 3.500166
											CHANNELS 3 Xrotation Yrotation Zrotation
											JOINT mixamorig:RightHandThumb4
											{
												OFFSET -4.792618 -2.767029 2.767022
												CHANNELS 3 Xrotation Yrotation Zrotation
												End Site
												{
													OFFSET -0.100327 6.053253 1.276754
												}
											}
										}
									}
								}
								JOINT mixamorig:RightHandIndex1
								{
									OFFSET -23.048981 -0.310791 4.992554
									CHANNELS 3 Xrotation Yrotation Zrotation
									JOINT mixamorig:RightHandIndex2
									{
										OFFSET -6.227539 0.000000 0.000000
										CHANNELS 3 Xrotation Yrotation Zrotation
										JOINT mixamorig:RightHandIndex3
										{
											OFFSET -6.095047 0.000000 0.000000
											CHANNELS 3 Xrotation Yrotation Zrotation
											JOINT mixamorig:RightHandIndex4
											{
												OFFSET -5.484772 0.000000 0.000000
												CHANNELS 3 Xrotation Yrotation Zrotation
												End Site
												{
													OFFSET 1.420593 5.237305 0.797056
												}
											}
										}
									}
								}
								JOINT mixamorig:RightHandRing1
								{
									OFFSET -22.246323 0.020569 -3.963762
									CHANNELS 3 Xrotation Yrotation Zrotation
									JOINT mixamorig:RightHandRing2
									{
										OFFSET -6.322128 0.000000 0.000000
										CHANNELS 3 Xrotation Yrotation Zrotation
										JOINT mixamorig:RightHandRing3
										{
											OFFSET -5.900024 0.000000 0.000000
											CHANNELS 3 Xrotation Yrotation Zrotation
											JOINT mixamorig:RightHandRing4
											{
												OFFSET -6.518356 0.000000 0.000000
												CHANNELS 3 Xrotation Yrotation Zrotation
												End Site
												{
													OFFSET 1.636398 6.232697 0.982186
												}
											}
										}
									}
								}
								JOINT mixamorig:RightHandPinky1
								{
									OFFSET -20.411011 -0.303314 -8.561701
									CHANNELS 3 Xrotation Yrotation Zrotation
									JOINT mixamorig:RightHandPinky2
									{
										OFFSET -6.907349 0.000000 0.000000
										CHANNELS 3 Xrotation Yrotation Zrotation
										JOINT mixamorig:RightHandPinky3
										{
											OFFSET -4.623840 0.000000 0.000000
											CHANNELS 3 Xrotation Yrotation Zrotation
											JOINT mixamorig:RightHandPinky4
											{
												OFFSET -5.218353 0.000000 0.000000
												CHANNELS 3 Xrotation Yrotation Zrotation
												End Site
												{
													OFFSET 0.602097 5.118835 0.816273
												}
											}
										}
									}
								}
							}
						}
					}
				}
			}
		}
	}
	JOINT mixamorig:LeftUpLeg
	{
		OFFSET 18.168400 -13.561905 -0.039000
		CHANNELS 3 Xrotation Yrotation Zrotation
		JOINT mixamorig:LeftLeg
		{
			OFFSET 0.577358 -80.825211 -3.695000
			CHANNELS 3 Xrotation Yrotation Zrotation
			JOINT mixamorig:LeftFoot
			{
				OFFSET -0.577356 -83.370262 -6.520700
				CHANNELS 3 Xrotation Yrotation Zrotation
				JOINT mixamorig:LeftToeBase
				{
					OFFSET 0.750401 -20.798306 25.135401
					CHANNELS 3 Xrotation Yrotation Zrotation
					JOINT mixamorig:LeftToe_End
					{
						OFFSET -0.000500 0.001200 19.917799
						CHANNELS 3 Xrotation Yrotation Zrotation
						End Site
						{
							OFFSET 0.000000 19.917805 0.000000
						}
					}
				}
			}
		}
	}
	JOINT mixamorig:RightUpLeg
	{
		OFFSET -18.162500 -13.585098 -0.041000
		CHANNELS 3 Xrotation Yrotation Zrotation
		JOINT mixamorig:RightLeg
		{
			OFFSET -0.595024 -80.945297 -3.631900
			CHANNELS 3 Xrotation Yrotation Zrotation
			JOINT mixamorig:RightFoot
			{
				OFFSET 0.595024 -83.218193 -6.561200
				CHANNELS 3 Xrotation Yrotation Zrotation
				JOINT mixamorig:RightToeBase
				{
					OFFSET -0.753601 -20.807106 25.115000
					CHANNELS 3 Xrotation Yrotation Zrotation
					JOINT mixamorig:RightToe_End
					{
						OFFSET 0.000299 0.001700 19.918200
						CHANNELS 3 Xrotation Yrotation Zrotation
						End Site
						{
							OFFSET 0.000000 19.918203 0.000000
						}
					}
				}
			}
		}
	}
}
MOTION
Frames: 4
Frame Time: 0.033333
0.042993 167.768799 -0.462406 11.723250 3.057351 -1.288493 9.927043 1.435365 1.201940 7.645333 0.753228 0.067568 7.636947 0.840686 0.048856 -11.425849 -1.903120 7.327011 -27.420395 2.052767 -6.271740 0.000000 -0.000000 -0.000000 0.000000 -0.000000 -0.000000 0.000000 -0.000000 -0.000000 3.557350 -26.212550 4.772367 -62.403265 -21.804185 -66.738987 0.000079 -109.450414 0.000079 0.778319 -4.236627 14.397178 -0.000005 -0.001923 0.015980 0.000002 0.001946 -0.016040 -0.000002 0.000007 -0.000045 0.000002 -0.000004 -0.000001 -15.245218 10.163085 26.456295 3.939041 7.948702 0.746813 -0.579457 1.575001 2.538716 -0.000001 -0.000004 -0.000001 -0.000003 0.000003 0.000009 0.000000 0.000014 -0.000061 0.000003 0.000005 -0.000050 -0.000000 0.000003 0.000002 0.000001 0.000001 0.000015 -0.000002 0.000015 -0.000076 -0.000001 -0.000006 -0.000056 -0.000000 0.000004 0.000001 -0.018079 4.054256 0.511074 -0.018095 -4.054233 -0.511135 -0.000007 0.000008 -0.000049 -0.000001 0.000001 0.000001 1.209614 13.189587 10.689363 -58.736792 43.251203 51.659846 0.000193 106.371843 -0.000194 2.773288 -4.037768 -38.887699 -0.000001 -0.000000 0.000001 0.000002 -0.000006 0.000086 -0.000005 0.000004 0.000021 0.000001 0.000001 -0.000000 -6.948213 -5.049369 -29.743005 4.637196 -8.634131 -0.225401 -1.273766 0.137312 -2.094857 0.000003 0.000001 0.000001 -0.000003 0.000000 0.000009 0.000008 -0.000009 0.000069 -0.000005 0.000004 0.000031 0.000001 -0.000001 -0.000002 -0.000004 -0.000002 0.000004 0.000011 -0.000002 0.000080 -0.000009 0.000000 0.000023 -0.000002 -0.000002 -0.000001 -0.000004 0.000002 0.000009 0.000008 -0.000002 0.000074 -0.000005 0.000001 0.000030 -0.000001 0.000001 0.000001 -57.788352 1.399334 4.845616 76.593079 7.715062 -0.606552 -29.603901 5.250987 -5.110546 -0.000006 0.000000 -0.000003 -0.000000 0.000000 -0.000000 -55.898026 -14.214092 -6.937976 75.574950 -8.083220 -4.578137 -32.331069 -9.906644 4.130330 -0.000000 -0.000010 -0.000001 -0.000000 -0.000000 -0.000000 
0.055709 167.778168 -0.444271 11.766543 3.047561 -1.304799 9.909847 1.454842 1.187304 7.633171 0.769254 0.058699 7.624629 0.856616 0.039881 -11.444199 -1.923866 7.361597 -27.436175 1.999899 -6.276386 0.000000 -0.000000 -0.000000 0.000000 -0.000000 -0.000000 0.000000 -0.000000 -0.000000 3.557345 -26.212548 4.772367 -62.439574 -21.913842 -66.819577 0.000062 -109.545757 0.000059 1.016389 -4.380409 14.319687 -0.000005 -0.001922 0.015980 0.000004 0.001943 -0.016045 -0.000001 0.000005 -0.000043 0.000001 0.000003 -0.000001 -15.245216 10.163088 26.456301 3.939042 7.948711 0.746814 -0.579460 1.575001 2.538716 -0.000001 -0.000001 0.000000 -0.000003 0.000004 0.000010 0.000000 0.000011 -0.000061 0.000003 0.000008 -0.000048 -0.000001 -0.000000 0.000000 0.000000 0.000004 0.000013 -0.000004 0.000020 -0.000072 -0.000003 -0.000000 -0.000059 -0.000001 -0.000001 0.000001 -0.018080 4.054262 0.511075 -0.018095 -4.054236 -0.511140 -0.000008 0.000010 -0.000049 0.000000 0.000000 0.000002 1.207716 13.175770 10.734727 -58.706869 43.206120 51.589662 -0.000019 106.607259 -0.000004 2.994833 -3.971789 -38.906011 -0.000002 -0.000000 -0.000000 0.000000 -0.000008 0.000087 -0.000003 0.000006 0.000019 0.000001 0.000002 0.000000 -6.948213 -5.049373 -29.743005 4.637197 -8.634128 -0.225391 -1.273766 0.137314 -2.094861 0.000001 -0.000003 -0.000003 -0.000005 0.000000 0.000009 0.000009 -0.000013 0.000068 -0.000005 0.000001 0.000028 0.000001 0.000002 -0.000001 -0.000002 0.000002 0.000005 0.000009 -0.000003 0.000079 -0.000012 -0.000003 0.000022 0.000000 -0.000001 -0.000000 -0.000004 0.000000 0.000009 0.000008 -0.000005 0.000074 -0.000005 0.000000 0.000031 -0.000001 0.000001 0.000000 -57.827926 1.376704 4.886384 76.599096 7.706130 -0.667086 -29.593430 5.258368 -5.083262 -0.000006 -0.000000 -0.000003 0.000000 -0.000000 -0.000000 -55.926354 -14.226397 -6.917261 75.553702 -8.096470 -4.593179 -32.320756 -9.904704 4.144411 -0.000000 -0.000009 -0.000001 0.000000 -0.000000 -0.000000 
0.077639 167.778946 -0.419044 11.802360 3.033050 -1.333179 9.891956 1.486182 1.176843 7.619997 0.793060 0.049375 7.611136 0.880646 0.030306 -11.470306 -1.969856 7.427054 -27.400906 1.869801 -6.289242 -0.000000 0.000000 -0.000000 -0.000000 0.000000 -0.000000 -0.000000 0.000000 -0.000000 3.557351 -26.212547 4.772367 -62.514181 -22.042337 -66.916053 0.000037 -109.608834 0.000041 1.236737 -4.410138 14.244753 -0.000005 -0.001919 0.015978 0.000002 0.001943 -0.016040 -0.000003 0.000008 -0.000044 -0.000001 -0.000003 0.000001 -15.245220 10.163094 26.456299 3.939040 7.948703 0.746814 -0.579460 1.575004 2.538716 0.000002 -0.000001 0.000001 -0.000002 0.000004 0.000006 0.000000 0.000016 -0.000062 0.000003 0.000010 -0.000049 0.000000 -0.000002 0.000001 0.000001 0.000004 0.000012 -0.000001 0.000017 -0.000074 -0.000000 -0.000003 -0.000056 -0.000001 -0.000003 0.000000 -0.018077 4.054257 0.511073 -0.018094 -4.054234 -0.511136 -0.000007 0.000005 -0.000049 -0.000001 0.000000 0.000001 1.205945 13.146154 10.801881 -58.722695 43.168571 51.544081 -0.000020 106.809399 0.000006 3.102354 -3.933563 -38.909658 -0.000002 -0.000000 -0.000000 0.000001 -0.000011 0.000087 -0.000004 0.000003 0.000021 0.000003 0.000000 -0.000001 -6.948215 -5.049374 -29.743005 4.637198 -8.634137 -0.225395 -1.273765 0.137313 -2.094855 -0.000001 -0.000004 0.000002 -0.000004 0.000002 0.000009 0.000009 -0.000010 0.000069 -0.000005 0.000001 0.000029 -0.000000 -0.000005 -0.000000 -0.000004 -0.000002 0.000003 0.000009 -0.000000 0.000080 -0.000010 -0.000001 0.000023 -0.000000 0.000002 0.000000 -0.000005 -0.000001 0.000009 0.000008 -0.000000 0.000074 -0.000006 0.000001 0.000030 -0.000002 0.000004 0.000000 -57.867104 1.353095 4.931085 76.620878 7.687908 -0.720276 -29.587809 5.297902 -5.048658 -0.000006 0.000001 -0.000003 -0.000000 0.000001 -0.000000 -55.945745 -14.247970 -6.898487 75.539789 -8.108510 -4.598854 -32.316360 -9.895191 4.158546 -0.000000 -0.000009 -0.000001 -0.000000 -0.000000 0.000000 
0.112773 167.781357 -0.386467 11.839516 3.011062 -1.359778 9.875491 1.524093 1.164257 7.606520 0.822609 0.040046 7.597277 0.910608 0.020586 -11.512459 -2.020961 7.497548 -27.383002 1.723010 -6.301876 0.000000 0.000000 -0.000000 0.000000 0.000000 -0.000000 0.000000 0.000000 -0.000000 3.557350 -26.212548 4.772367 -62.620998 -22.195910 -67.031258 0.000086 -109.685946 0.000076 1.508206 -4.501096 14.162101 -0.000004 -0.001923 0.015980 0.000004 0.001940 -0.016044 -0.000002 0.000009 -0.000041 0.000001 0.000002 -0.000000 -15.245218 10.163088 26.456301 3.939040 7.948708 0.746813 -0.579460 1.575004 2.538716 0.000002 0.000004 0.000001 -0.000002 0.000003 0.000010 0.000001 0.000009 -0.000064 0.000003 0.000009 -0.000049 -0.000002 0.000001 -0.000002 0.000001 0.000005 0.000014 -0.000003 0.000019 -0.000075 -0.000001 -0.000001 -0.000059 -0.000002 0.000002 0.000000 -0.018077 4.054253 0.511074 -0.018095 -4.054232 -0.511137 -0.000007 0.000008 -0.000049 0.000001 0.000001 0.000003 1.205924 13.106003 10.860525 -58.781906 43.109098 51.531209 0.000109 107.055545 -0.000134 3.293628 -3.869883 -38.871006 -0.000002 -0.000003 -0.000001 0.000002 -0.000007 0.000088 -0.000003 0.000005 0.000020 0.000000 0.000002 0.000000 -6.948214 -5.049372 -29.743001 4.637195 -8.634131 -0.225395 -1.273765 0.137312 -2.094858 0.000002 -0.000003 0.000002 -0.000007 0.000001 0.000009 0.000009 -0.000011 0.000068 -0.000004 0.000001 0.000029 -0.000000 -0.000001 0.000001 -0.000003 0.000000 0.000004 0.000008 -0.000003 0.000079 -0.000010 -0.000005 0.000023 0.000000 0.000002 0.000000 -0.000005 0.000002 0.000010 0.000009 -0.000005 0.000073 -0.000005 -0.000000 0.000031 -0.000001 -0.000002 0.000000 -57.901269 1.361485 4.965445 76.633596 7.669096 -0.732972 -29.596453 5.332222 -5.020198 -0.000006 -0.000001 -0.000003 -0.000000 -0.000001 0.000000 -55.965064 -14.264853 -6.894509 75.526019 -8.124967 -4.591341 -32.312734 -9.864037 4.176232 -0.000000 -0.000010 -0.000001 -0.000000 -0.000000 -0.000000 
